# xmcd CD database file
#
# Track frame offsets:
#	150
#	77246
#	141348
#	216993
#
# Disc length: 3442 seconds
#
# Revision: 0
# Processed by: cddbd v1.5.2PL0 Copyright (c) Steve Scherf et al.
# Submitted via: CDex 1.51
#
DISCID=390d7004
DTITLE=Medwyn Goodall - Earth Love
DYEAR=2001
DGENRE=New Age
TTITLE0=Earth Love 1
TTITLE1=Earth Love 2
TTITLE2=Earth Love 3
TTITLE3=Earth Love 4
EXTD=YEAR: 2001
EXTT0=
EXTT1=
EXTT2=
EXTT3=
PLAYORDER=
